<?xml version="1.0" standalone="no"?>
<!DOCTYPE svg PUBLIC "-//W3C//DTD SVG 20010904//EN"
 "http://www.w3.org/TR/2001/REC-SVG-20010904/DTD/svg10.dtd">
<svg version="1.0" xmlns="http://www.w3.org/2000/svg"
 width="200.000000pt" height="200.000000pt" viewBox="0 0 200.000000 200.000000"
 preserveAspectRatio="xMidYMid meet">
<metadata>
Created by potrace 1.14, written by Peter Selinger 2001-2017
</metadata>
<g transform="translate(0.000000,200.000000) scale(0.100000,-0.100000)"
fill="#000000" stroke="none">
<path d="M542 1803 l-173 -3 -19 -43 c-11 -23 -20 -56 -20 -73 0 -30 2 -32 46
-37 32 -3 55 -13 73 -31 l26 -26 3 -568 c2 -389 0 -579 -8 -604 -12 -41 -40
-61 -103 -72 -39 -7 -39 -8 -32 -44 4 -20 16 -52 27 -69 l20 -33 289 0 289 0
20 40 c11 21 20 53 20 69 0 25 -5 32 -27 37 -53 11 -84 27 -103 52 -19 23 -20
41 -20 253 l0 229 79 0 c72 0 83 -3 112 -27 42 -35 79 -119 125 -279 64 -226
109 -301 211 -350 47 -23 72 -28 163 -32 114 -5 160 4 204 39 23 18 26 28 26
80 0 58 0 59 -37 74 -67 28 -91 62 -139 198 -14 39 -42 100 -61 135 -45 82
-148 191 -209 221 l-47 24 75 26 c191 68 276 199 266 411 -4 75 -10 108 -30
151 -62 135 -183 211 -388 245 -83 14 -189 15 -658 7z m448 -138 c0 -9 -7 -18
-15 -21 -8 -4 -15 -10 -15 -16 0 -5 5 -6 10 -3 6 3 10 -1 10 -9 0 -8 -10 -20
-21 -27 -17 -9 -19 -13 -8 -20 11 -7 9 -13 -11 -29 -14 -11 -20 -20 -13 -20
21 0 2 -30 -19 -30 -13 0 -18 -5 -15 -14 7 -18 -12 -36 -30 -29 -10 4 -14 0
-11 -13 2 -14 -3 -19 -19 -18 -13 0 -23 -5 -23 -12 0 -17 -25 -25 -39 -11 -8
8 -11 7 -11 -6 0 -18 -25 -23 -35 -7 -4 6 -11 8 -16 4 -5 -3 -7 -9 -4 -14 2
-4 -6 -10 -20 -12 -22 -5 -25 -2 -25 23 0 78 77 201 157 250 75 46 173 65 173
34z m160 -17 c93 -45 173 -153 187 -253 5 -41 4 -45 -15 -45 -11 0 -24 5 -27
10 -10 17 -28 11 -21 -6 5 -14 1 -16 -29 -11 -24 4 -33 2 -29 -5 9 -15 -17
-28 -44 -21 -17 4 -21 2 -16 -11 5 -12 -2 -18 -25 -22 -17 -4 -28 -11 -25 -16
8 -13 -17 -40 -32 -34 -7 3 -16 1 -19 -4 -4 -6 0 -10 7 -10 7 -1 2 -10 -12
-21 -15 -13 -24 -29 -22 -41 2 -13 -3 -21 -17 -25 -23 -6 -27 -19 -8 -27 8 -3
5 -11 -10 -24 -26 -23 -30 -37 -8 -28 17 6 20 -20 6 -43 -23 -36 -185 31 -246
102 -44 52 -75 118 -82 178 l-6 49 31 0 c25 0 30 -3 26 -17 -4 -14 -1 -13 14
5 21 23 42 29 42 12 0 -19 18 -10 23 11 4 16 11 20 26 16 14 -3 21 0 21 9 0
14 40 41 40 27 0 -4 6 3 13 17 7 14 21 24 30 24 12 -1 17 6 17 23 0 17 7 27
20 30 13 4 19 11 16 22 -7 21 9 46 23 37 14 -9 14 7 1 20 -12 12 -2 47 10 39
15 -10 20 13 5 25 -7 6 -11 18 -8 27 8 21 80 11 143 -19z m187 -357 c-14 -104
-95 -213 -195 -259 -69 -32 -132 -41 -132 -19 0 9 6 22 14 30 9 8 12 24 9 36
-4 15 -1 21 12 21 14 0 15 3 5 15 -13 16 -6 35 14 35 7 0 12 10 12 23 -1 15 4
21 15 19 10 -1 15 5 15 20 -1 16 5 23 18 23 10 0 22 10 27 23 9 24 29 30 30
10 0 -7 4 -3 9 10 10 24 35 30 43 10 4 -8 8 -4 12 10 8 24 30 30 39 10 3 -9 8
-8 16 5 6 9 18 17 27 17 12 0 15 -8 10 -39z"/>
</g>
</svg>
